<svg width="256" height="256" viewBox="0 0 256 256" fill="none" xmlns="http://www.w3.org/2000/svg">
<path d="M197.251 202.66V202.66C223.927 202.66 245.551 181.036 245.551 154.36V70.3888C245.551 37.2517 218.688 10.3888 185.551 10.3888H100.419C73.8718 10.3888 52.3511 31.9095 52.3511 58.4566V58.4566" stroke="black" stroke-width="20"/>
<path d="M10 196.001V105.122C10 77.5083 32.3858 55.1225 60 55.1225H151.897C179.511 55.1225 201.897 77.5083 201.897 105.123V196.001C201.897 223.615 179.511 246.001 151.897 246.001H105.948H60C32.3858 246.001 10 223.615 10 196.001Z" stroke="black" stroke-width="20"/>
<path d="M134.084 138.377H108.447C108.266 136.256 107.781 134.332 106.993 132.605C106.235 130.877 105.175 129.392 103.811 128.15C102.478 126.877 100.857 125.908 98.9474 125.241C97.0383 124.544 94.8717 124.195 92.4474 124.195C88.205 124.195 84.6141 125.226 81.6747 127.286C78.7656 129.347 76.5535 132.302 75.0383 136.15C73.5535 139.998 72.811 144.62 72.811 150.014C72.811 155.711 73.5686 160.483 75.0838 164.332C76.6292 168.15 78.8565 171.029 81.7656 172.968C84.6747 174.877 88.1747 175.832 92.2656 175.832C94.5989 175.832 96.6898 175.544 98.5383 174.968C100.387 174.362 101.993 173.498 103.357 172.377C104.72 171.256 105.826 169.908 106.675 168.332C107.553 166.726 108.144 164.923 108.447 162.923L134.084 163.105C133.781 167.044 132.675 171.059 130.766 175.15C128.857 179.211 126.144 182.968 122.629 186.423C119.144 189.847 114.826 192.605 109.675 194.695C104.523 196.786 98.5383 197.832 91.7201 197.832C83.1747 197.832 75.508 195.998 68.7201 192.332C61.9626 188.665 56.6141 183.271 52.6747 176.15C48.7656 169.029 46.811 160.317 46.811 150.014C46.811 139.65 48.811 130.923 52.811 123.832C56.811 116.711 62.205 111.332 68.9929 107.695C75.7807 104.029 83.3565 102.195 91.7201 102.195C97.5989 102.195 103.008 102.998 107.947 104.605C112.887 106.211 117.22 108.559 120.947 111.65C124.675 114.711 127.675 118.483 129.947 122.968C132.22 127.453 133.599 132.589 134.084 138.377ZM159.55 198.014C156.035 198.014 153.019 196.786 150.504 194.332C148.019 191.847 146.792 188.832 146.822 185.286C146.792 181.832 148.019 178.877 150.504 176.423C153.019 173.968 156.035 172.741 159.55 172.741C162.883 172.741 165.822 173.968 168.368 176.423C170.944 178.877 172.247 181.832 172.277 185.286C172.247 187.65 171.625 189.802 170.413 191.741C169.232 193.65 167.686 195.18 165.777 196.332C163.868 197.453 161.792 198.014 159.55 198.014Z" fill="black"/>
</svg>
